<svg width="372.267" height="374.528" xmlns="http://www.w3.org/2000/svg" version="1.1">

 <g>
  <title>Layer 1</title>
  <path id="svg_1" stroke-miterlimit="10" stroke-width="0.3985" fill="none" stroke="#000" d="m130.41689,2.19163l-99.74778,0c-2.20094,0 -3.98511,1.78417 -3.98511,3.98511l0,20.37656c0,2.20094 1.78417,3.98511 3.98511,3.98511l99.74778,0c2.20094,0 3.98511,-1.78417 3.98511,-3.98511l0,-20.37656c0,-2.20094 -1.78417,-3.98511 -3.98511,-3.98511z"/>
  <text id="svg_2" font-size="9.96px" font-family="BWIXYK-CMR10" transform="matrix(0.999739 0 0 0.999739 -0.000004 374.528)" y="-360.58787" x="56.97713" class="f0">L
   <tspan id="svg_3" x="62.37545">TE-based</tspan>
   <tspan id="svg_4" y="-348.63499" x="58.78965">deriv</tspan>
   <tspan id="svg_5" x="80.12397">ation</tspan></text>
  <path id="svg_6" stroke-miterlimit="10" stroke-width="0.3985" fill="none" stroke="#000" d="m130.41689,76.29201l-99.74778,0c-2.20094,0 -3.98511,1.78416 -3.98511,3.98511l0,20.37657c0,2.20094 1.78417,3.9851 3.98511,3.9851l99.74778,0c2.20094,0 3.98511,-1.78416 3.98511,-3.9851l0,-20.37657c0,-2.20095 -1.78417,-3.98511 -3.98511,-3.98511z"/>
  <text id="svg_7" font-size="9.96px" font-family="BWIXYK-CMR10" transform="matrix(0.999739 0 0 0.999739 0 374.528)" y="-286.50721" x="59.7584" class="f0">T
   <tspan id="svg_8" x="66.12284">emp</tspan>
   <tspan id="svg_9" x="84.64843">oral</tspan>
   <tspan id="svg_10" y="-274.55533" x="45.71706">Sturm–Liouville</tspan></text>
  <path id="svg_11" stroke-miterlimit="10" stroke-width="0.3985" fill="none" stroke="#000" d="m130.41689,150.3924l-99.74778,0c-2.20094,0 -3.98511,1.78416 -3.98511,3.9851l0,20.37658c0,2.20094 1.78417,3.9851 3.98511,3.9851l99.74778,0c2.20094,0 3.98511,-1.78416 3.98511,-3.9851l0,-20.37658c0,-2.20094 -1.78417,-3.9851 -3.98511,-3.9851z"/>
  <text id="svg_12" font-size="9.96px" font-family="BWIXYK-CMR10" transform="matrix(0.999739 0 0 0.999739 0 374.528)" y="-213.67222" x="52.34334" class="f0">Laten
   <tspan id="svg_13" x="77.10389">t</tspan>
   <tspan id="svg_14" x="84.30497">phase</tspan>
   <tspan id="svg_15" y="-201.72034" x="71.2534">Φ(</tspan></text>
  <text id="svg_16" font-size="9.96px" font-family="VUAGFE-CMMI10" transform="matrix(0.999739 0 0 0.999739 0 374.528)" y="-201.72034" x="82.32051" class="f1">t</text>
  <text id="svg_17" font-size="9.96px" font-family="BWIXYK-CMR10" transform="matrix(0.999739 0 0 0.999739 0 374.528)" y="-201.72034" x="85.91657" class="f0">)</text>
  <path id="svg_18" stroke-miterlimit="10" stroke-width="0.79701" fill="none" stroke="#000" d="m80.543,30.73765l0,44.64774"/>
  <path id="svg_19" stroke-linecap="round" stroke-linejoin="round" stroke-miterlimit="10" stroke-width="0.6376" fill="none" stroke="#000" d="m82.6152,73.83124c-0.77708,0.12951 -1.9427,1.55415 -2.0722,1.94267c-0.1295,-0.38852 -1.29512,-1.81316 -2.0722,-1.94267"/>
  <path id="svg_20" stroke-miterlimit="10" stroke-width="0.79701" fill="none" stroke="#000" d="m80.543,104.83804l0,44.64774"/>
  <path id="svg_21" stroke-linecap="round" stroke-linejoin="round" stroke-miterlimit="10" stroke-width="0.6376" fill="none" stroke="#000" d="m82.6152,147.93163c-0.77708,0.12951 -1.9427,1.55415 -2.0722,1.94267c-0.1295,-0.38852 -1.29512,-1.81316 -2.0722,-1.94267"/>
  <path id="svg_22" stroke-miterlimit="10" stroke-width="0.3985" fill="none" stroke="#000" d="m366.0941,2.19163l-99.7478,0c-2.20094,0 -3.98511,1.78417 -3.98511,3.98511l0,20.37656c0,2.20094 1.78417,3.98511 3.98511,3.98511l99.7478,0c2.20095,0 3.9851,-1.78417 3.9851,-3.98511l0,-20.37656c0,-2.20094 -1.78415,-3.98511 -3.9851,-3.98511z"/>
  <text id="svg_23" font-size="9.96px" font-family="BWIXYK-CMR10" transform="matrix(0.999739 0 0 0.999739 0.000031 374.528)" y="-361.55562" x="297.2654" class="f0">Classical</text>
  <text id="svg_24" font-size="9.96px" font-family="VUAGFE-CMMI10" transform="matrix(0.999739 0 0 0.999739 0.000031 374.528)" y="-349.60374" x="299.77475" class="f1">β</text>
  <text id="svg_25" font-size="9.96px" font-family="BWIXYK-CMR10" transform="matrix(0.999739 0 0 0.999739 0.000031 374.528)" y="-349.60374" x="305.93414" class="f0">-plane</text>
  <path id="svg_26" stroke-miterlimit="10" stroke-width="0.3985" fill="none" stroke="#000" d="m366.0941,76.29201l-99.7478,0c-2.20094,0 -3.98511,1.78416 -3.98511,3.98511l0,20.37657c0,2.20094 1.78417,3.9851 3.98511,3.9851l99.7478,0c2.20095,0 3.9851,-1.78416 3.9851,-3.9851l0,-20.37657c0,-2.20095 -1.78415,-3.98511 -3.9851,-3.98511z"/>
  <text id="svg_27" font-size="9.96px" font-family="BWIXYK-CMR10" transform="matrix(0.999739 0 0 0.999739 0 374.528)" y="-286.50721" x="292.74258" class="f0">Meridional
   <tspan id="svg_28" y="-274.55533" x="281.32956">Sturm–Liouville</tspan></text>
  <path id="svg_29" stroke-miterlimit="10" stroke-width="0.3985" fill="none" stroke="#000" d="m366.0941,150.3924l-99.7478,0c-2.20094,0 -3.98511,1.78416 -3.98511,3.9851l0,20.37658c0,2.20094 1.78417,3.9851 3.98511,3.9851l99.7478,0c2.20095,0 3.9851,-1.78416 3.9851,-3.9851l0,-20.37658c0,-2.20094 -1.78415,-3.9851 -3.9851,-3.9851z"/>
  <text id="svg_30" font-size="9.96px" font-family="BWIXYK-CMR10" transform="matrix(0.999739 0 0 0.999739 0 374.528)" y="-213.67222" x="287.95583" class="f0">Laten
   <tspan id="svg_31" x="312.71641">t</tspan>
   <tspan id="svg_32" x="319.91749">phase</tspan>
   <tspan id="svg_33" y="-201.72034" x="306.86589">Φ(</tspan></text>
  <text id="svg_34" font-size="9.96px" font-family="VUAGFE-CMMI10" transform="matrix(0.999739 0 0 0.999739 0 374.528)" y="-201.72034" x="317.93304" class="f1">t</text>
  <text id="svg_35" font-size="9.96px" font-family="BWIXYK-CMR10" transform="matrix(0.999739 0 0 0.999739 0 374.528)" y="-201.72034" x="321.53007" class="f0">)</text>
  <path id="svg_36" stroke-miterlimit="10" stroke-width="0.79701" fill="none" stroke="#000" d="m316.22019,30.73765l0,44.64774"/>
  <path id="svg_37" stroke-linecap="round" stroke-linejoin="round" stroke-miterlimit="10" stroke-width="0.6376" fill="none" stroke="#000" d="m318.29239,73.83124c-0.77708,0.12951 -1.9427,1.55415 -2.0722,1.94267c-0.1295,-0.38852 -1.29512,-1.81316 -2.0722,-1.94267"/>
  <path id="svg_38" stroke-miterlimit="10" stroke-width="0.79701" fill="none" stroke="#000" d="m316.22019,104.83804l0,44.64774"/>
  <path id="svg_39" stroke-linecap="round" stroke-linejoin="round" stroke-miterlimit="10" stroke-width="0.6376" fill="none" stroke="#000" d="m318.29239,147.93163c-0.77708,0.12951 -1.9427,1.55415 -2.0722,1.94267c-0.1295,-0.38852 -1.29512,-1.81316 -2.0722,-1.94267"/>
  <path id="svg_40" stroke-miterlimit="10" stroke-width="0.3985" fill="none" stroke="#000" d="m154.51164,269.84742l-147.93728,0c-2.20095,0 -3.98511,1.78417 -3.98511,3.9851l0,20.423c0,2.20094 1.78416,3.9851 3.98511,3.9851l147.93728,0c2.20095,0 3.98511,-1.78416 3.98511,-3.9851l0,-20.423c0,-2.20093 -1.78416,-3.9851 -3.98511,-3.9851z"/>
  <text id="svg_41" font-size="9.96px" font-family="BWIXYK-CMR10" transform="matrix(0.999739 0 0 0.999739 -0.000004 374.528)" y="-94.53132" x="38.13605" class="f0">Common
   <tspan id="svg_42" x="80.73497">structure:</tspan>
   <tspan id="svg_43" y="-82.57944" x="35.2448">Φ(</tspan></text>
  <text id="svg_44" font-size="9.96px" font-family="VUAGFE-CMMI10" transform="matrix(0.999739 0 0 0.999739 -0.000004 374.528)" y="-82.57944" x="46.31091" class="f1">t</text>
  <text id="svg_45" font-size="9.96px" font-family="BWIXYK-CMR10" transform="matrix(0.999739 0 0 0.999739 -0.000004 374.528)" y="-82.57944" x="49.90797" class="f0">)
   <tspan id="svg_46" x="56.5513">=</tspan></text>
  <text id="svg_47" font-size="9.96px" font-family="LBWBDW-CMEX10" transform="matrix(0.999739 0 0 0.999739 -0.000004 374.528)" y="-82.04949" x="67.06149" class="f2">Σ</text>
  <text id="svg_48" font-size="6.97px" font-family="JZNSLW-CMMI7" transform="matrix(0.999455 0 0 0.999455 -0.000004 374.528)" y="-79.56862" x="77.55272" class="f3">i</text>
  <text id="svg_49" font-size="9.96px" font-family="VUAGFE-CMMI10" transform="matrix(0.999739 0 0 0.999739 -0.000004 374.528)" y="-82.57944" x="82.55045" class="f1">k</text>
  <text id="svg_50" font-size="6.97px" font-family="JZNSLW-CMMI7" transform="matrix(0.999455 0 0 0.999455 -0.000004 374.528)" y="-81.0618" x="87.71118" class="f3">i</text>
  <text id="svg_51" font-size="9.96px" font-family="BWIXYK-CMR10" transform="matrix(0.999739 0 0 0.999739 -0.000004 374.528)" y="-82.57944" x="92.71179" class="f0">sin(</text>
  <text id="svg_52" font-size="9.96px" font-family="VUAGFE-CMMI10" transform="matrix(0.999739 0 0 0.999739 -0.000004 374.528)" y="-82.57944" x="108.81359" class="f1">ω</text>
  <text id="svg_53" font-size="6.97px" font-family="JZNSLW-CMMI7" transform="matrix(0.999455 0 0 0.999455 -0.000004 374.528)" y="-81.0618" x="114.98131" class="f3">i</text>
  <text id="svg_54" font-size="9.96px" font-family="VUAGFE-CMMI10" transform="matrix(0.999739 0 0 0.999739 -0.000004 374.528)" y="-82.57944" x="118.32911" class="f1">t</text>
  <text id="svg_55" font-size="9.96px" font-family="BWIXYK-CMR10" transform="matrix(0.999739 0 0 0.999739 -0.000004 374.528)" y="-82.57944" x="121.92617" class="f0">)</text>
  <path id="svg_56" stroke-miterlimit="10" stroke-width="0.3985" fill="none" stroke="#000" d="m154.51164,343.99421l-147.93728,0c-2.20095,0 -3.98511,1.78418 -3.98511,3.98511l0,20.37659c0,2.20095 1.78416,3.9851 3.98511,3.9851l147.93728,0c2.20095,0 3.98511,-1.78415 3.98511,-3.9851l0,-20.37659c0,-2.20093 -1.78416,-3.98511 -3.98511,-3.98511z"/>
  <text id="svg_57" font-size="9.96px" font-family="BWIXYK-CMR10" transform="matrix(0.999739 0 0 0.999739 -0.000004 374.528)" y="-20.12375" x="55.1656" class="f0">Observ
   <tspan id="svg_58" x="85.40416">able:</tspan></text>
  <text id="svg_59" font-size="9.96px" font-family="VUAGFE-CMMI10" transform="matrix(0.999739 0 0 0.999739 -0.000004 374.528)" y="-8.17187" x="49.45109" class="f1">ζ</text>
  <text id="svg_60" font-size="9.96px" font-family="BWIXYK-CMR10" transform="matrix(0.999739 0 0 0.999739 -0.000004 374.528)" y="-8.17187" x="54.54376" class="f0">(</text>
  <text id="svg_61" font-size="9.96px" font-family="VUAGFE-CMMI10" transform="matrix(0.999739 0 0 0.999739 -0.000004 374.528)" y="-8.17187" x="58.41675" class="f1">t</text>
  <text id="svg_62" font-size="9.96px" font-family="BWIXYK-CMR10" transform="matrix(0.999739 0 0 0.999739 -0.000004 374.528)" y="-8.17187" x="62.01381" class="f0">)
   <tspan id="svg_63" x="68.65713">=</tspan>
   <tspan id="svg_64" x="79.17488">sin</tspan>
   <tspan id="svg_65" x="93.05912">Φ(</tspan></text>
  <text id="svg_66" font-size="9.96px" font-family="VUAGFE-CMMI10" transform="matrix(0.999739 0 0 0.999739 -0.000004 374.528)" y="-8.17187" x="104.12282" class="f1">t</text>
  <text id="svg_67" font-size="9.96px" font-family="BWIXYK-CMR10" transform="matrix(0.999739 0 0 0.999739 -0.000004 374.528)" y="-8.17187" x="107.71888" class="f0">)</text>
  <path stroke="#000" id="svg_68" stroke-miterlimit="10" stroke-width="0.79701" fill="none" d="m80.543,178.93843l0,91.10559l0.55436,0"/>
  <path id="svg_69" stroke-linecap="round" stroke-linejoin="round" stroke-miterlimit="10" stroke-width="0.6376" fill="none" stroke="#000" d="m4.65152,286.1162c-0.12951,-0.77708 -1.55415,-1.9427 -1.94267,-2.0722c0.38852,-0.1295 1.81316,-1.29512 1.94267,-2.0722"/>
  <path id="svg_70" stroke-miterlimit="10" stroke-width="0.79701" fill="none" stroke="#000" d="m316.22019,178.93843l0,105.10559l-156.81682,0"/>
  <path id="svg_71" stroke-linecap="round" stroke-linejoin="round" stroke-miterlimit="10" stroke-width="0.6376" fill="none" stroke="#000" d="m160.95752,286.1162c-0.12951,-0.77708 -1.55415,-1.9427 -1.94267,-2.0722c0.38852,-0.1295 1.81316,-1.29512 1.94267,-2.0722"/>
  <path id="svg_72" stroke-miterlimit="10" stroke-width="0.79701" fill="none" stroke="#000" d="m80.543,298.43986l0,44.64773"/>
  <path id="svg_73" stroke-linecap="round" stroke-linejoin="round" stroke-miterlimit="10" stroke-width="0.6376" fill="none" stroke="#000" d="m82.6152,341.53345c-0.77708,0.12951 -1.9427,1.55415 -2.0722,1.94267c-0.1295,-0.38852 -1.29512,-1.81316 -2.0722,-1.94267"/>
 </g>
</svg>
